<svg width="16" height="15" viewBox="0 0 16 15" fill="none" xmlns="http://www.w3.org/2000/svg">
<path d="M15.2278 12.2475C15.2278 12.5175 15.1678 12.795 15.0401 13.065C14.9124 13.335 14.7471 13.59 14.5293 13.83C14.1612 14.235 13.7556 14.5275 13.2974 14.715C12.8468 14.9025 12.3585 15 11.8328 15C11.0666 15 10.2479 14.82 9.38408 14.4525C8.52028 14.085 7.65649 13.59 6.8002 12.9675C5.93641 12.3375 5.11768 11.64 4.33651 10.8675C3.56285 10.0875 2.8643 9.27 2.24086 8.415C1.62494 7.56 1.1292 6.705 0.768655 5.8575C0.408115 5.0025 0.227844 4.185 0.227844 3.405C0.227844 2.895 0.317979 2.4075 0.49825 1.9575C0.67852 1.5 0.963948 1.08 1.36205 0.705C1.84277 0.2325 2.36856 0 2.92439 0C3.1347 0 3.34502 0.0450001 3.5328 0.135C3.72809 0.225 3.90085 0.36 4.03606 0.555L5.77867 3.0075C5.91387 3.195 6.01152 3.3675 6.07912 3.5325C6.14672 3.69 6.18428 3.8475 6.18428 3.99C6.18428 4.17 6.1317 4.35 6.02654 4.5225C5.9289 4.695 5.78618 4.875 5.60591 5.055L5.03505 5.6475C4.95243 5.73 4.91487 5.8275 4.91487 5.9475C4.91487 6.0075 4.92239 6.06 4.93741 6.12C4.95994 6.18 4.98248 6.225 4.9975 6.27C5.1327 6.5175 5.36555 6.84 5.69605 7.23C6.03405 7.62 6.39459 8.0175 6.78518 8.415C7.19079 8.8125 7.58137 9.18 7.97947 9.5175C8.37006 9.8475 8.69304 10.0725 8.94842 10.2075C8.98598 10.2225 9.03105 10.245 9.08363 10.2675C9.14372 10.29 9.20381 10.2975 9.27141 10.2975C9.3991 10.2975 9.49675 10.2525 9.57937 10.17L10.1502 9.6075C10.338 9.42 10.5183 9.2775 10.691 9.1875C10.8638 9.0825 11.0366 9.03 11.2243 9.03C11.3671 9.03 11.5173 9.06 11.6825 9.1275C11.8478 9.195 12.0205 9.2925 12.2083 9.42L14.6945 11.1825C14.8898 11.3175 15.025 11.475 15.1077 11.6625C15.1828 11.85 15.2278 12.0375 15.2278 12.2475Z" fill="white"/>
</svg>
